<?xml version="1.0" standalone="no"?>
<!DOCTYPE svg PUBLIC "-//W3C//DTD SVG 20010904//EN"
 "http://www.w3.org/TR/2001/REC-SVG-20010904/DTD/svg10.dtd">
<svg version="1.0" xmlns="http://www.w3.org/2000/svg"
 width="600.000000pt" height="600.000000pt" viewBox="0 0 600.000000 600.000000"
 preserveAspectRatio="xMidYMid meet">

<g transform="translate(0.000000,600.000000) scale(0.100000,-0.100000)"
fill="#000000" stroke="none">
<path d="M2520 4550 c69 -5 183 -11 253 -13 70 -3 131 -7 134 -11 4 -3 34 -6
67 -6 72 0 259 -21 553 -61 220 -30 322 -37 193 -13 -41 8 -91 16 -110 19
-104 13 -182 25 -190 30 -4 3 -48 7 -96 11 -97 6 -116 8 -154 17 -14 4 -75 8
-135 10 -61 2 -115 6 -120 9 -6 4 -125 9 -265 11 -196 4 -226 3 -130 -3z"/>
<path d="M2328 4543 c6 -2 18 -2 25 0 6 3 1 5 -13 5 -14 0 -19 -2 -12 -5z"/>
<path d="M2185 4490 c-3 -6 1 -7 9 -4 18 7 21 14 7 14 -6 0 -13 -4 -16 -10z"/>
<path d="M3813 4419 c14 -8 22 -8 30 0 8 8 3 11 -18 11 -26 -1 -28 -2 -12 -11z"/>
<path d="M3860 4417 c0 -6 190 -50 196 -44 4 3 -44 15 -173 44 -13 3 -23 3
-23 0z"/>
<path d="M2112 4340 c0 -49 15 -97 35 -118 7 -7 13 -19 13 -25 0 -9 64 -12
248 -12 314 1 469 -15 752 -76 52 -11 134 -29 183 -39 48 -11 95 -16 104 -13
10 4 14 2 10 -4 -4 -7 8 -13 31 -17 20 -4 48 -11 62 -16 14 -5 88 -25 165 -45
77 -20 149 -40 160 -45 42 -18 140 -42 181 -43 23 -1 38 -5 32 -8 -8 -5 26
-17 67 -24 6 -1 36 -9 67 -19 32 -10 68 -15 80 -11 16 4 19 4 9 -3 -10 -7 2
-14 45 -26 33 -10 73 -24 91 -32 17 -8 35 -14 40 -14 4 0 52 -24 106 -54 56
-31 106 -52 115 -49 13 4 14 2 4 -4 -10 -7 -4 -16 22 -34 20 -13 36 -27 36
-31 0 -5 5 -8 11 -8 6 0 8 7 5 16 -3 9 -2 12 5 9 6 -4 8 -13 5 -20 -2 -7 9
-26 26 -41 16 -16 37 -42 45 -59 9 -16 20 -33 25 -36 6 -4 12 -29 15 -56 4
-46 2 -52 -23 -72 -15 -12 -38 -24 -51 -27 -13 -4 -20 -11 -16 -17 4 -6 0 -8
-9 -4 -19 7 -129 -48 -221 -111 -55 -37 -65 -48 -50 -53 17 -6 49 9 39 19 -3
3 31 22 74 44 49 24 78 44 74 50 -5 7 -2 8 5 3 16 -9 111 40 157 81 22 21 34
41 34 58 0 14 4 26 9 26 5 0 12 12 15 26 5 18 -2 45 -24 90 -18 39 -30 80 -30
106 0 36 -2 39 -12 25 -7 -9 -26 -21 -42 -27 -25 -9 -27 -9 -17 4 18 21 -34
111 -85 148 -56 40 -185 77 -469 134 -38 8 -87 21 -109 29 -21 9 -48 13 -60
10 -13 -4 -17 -3 -8 2 8 7 -3 16 -38 31 -28 12 -56 22 -63 22 -7 0 -17 4 -23
9 -12 12 -203 59 -274 67 -30 4 -59 10 -65 14 -10 8 -74 19 -267 45 -59 8
-130 22 -158 31 -42 14 -55 15 -75 4 -13 -7 -29 -10 -37 -7 -7 3 -3 6 10 6 51
2 16 21 -75 41 -54 11 -114 25 -133 30 -19 5 -102 16 -185 24 -272 27 -337 30
-482 22 -40 -2 -73 0 -73 5 0 5 -7 9 -16 9 -8 0 -13 4 -10 9 3 4 1 28 -3 52
l-9 44 0 -45z m75 -116 c-3 -3 -12 -4 -19 -1 -8 3 -5 6 6 6 11 1 17 -2 13 -5z
m30 -20 c-3 -3 -12 -4 -19 -1 -8 3 -5 6 6 6 11 1 17 -2 13 -5z m296 -1 c-7 -2
-19 -2 -25 0 -7 3 -2 5 12 5 14 0 19 -2 13 -5z m90 -10 c-7 -2 -21 -2 -30 0
-10 3 -4 5 12 5 17 0 24 -2 18 -5z m210 0 c-7 -2 -19 -2 -25 0 -7 3 -2 5 12 5
14 0 19 -2 13 -5z m205 -20 c-10 -2 -28 -2 -40 0 -13 2 -5 4 17 4 22 1 32 -1
23 -4z m267 -73 c3 -6 -1 -7 -9 -4 -18 7 -21 14 -7 14 6 0 13 -4 16 -10z m132
-26 c-3 -3 -12 -4 -19 -1 -8 3 -5 6 6 6 11 1 17 -2 13 -5z m118 -24 c3 -6 -4
-10 -17 -10 -18 0 -20 2 -8 10 19 12 18 12 25 0z m42 -16 c-3 -3 -12 -4 -19
-1 -8 3 -5 6 6 6 11 1 17 -2 13 -5z m222 -60 c10 -9 -35 -3 -49 6 -11 8 -7 9
15 4 17 -4 32 -8 34 -10z m48 10 c-3 -3 -12 -4 -19 -1 -8 3 -5 6 6 6 11 1 17
-2 13 -5z m30 -30 c-3 -3 -12 -4 -19 -1 -8 3 -5 6 6 6 11 1 17 -2 13 -5z m520
-130 c-3 -3 -12 -4 -19 -1 -8 3 -5 6 6 6 11 1 17 -2 13 -5z m283 -154 c8 -5
11 -10 5 -10 -5 0 -17 5 -25 10 -8 5 -10 10 -5 10 6 0 17 -5 25 -10z m223
-184 c3 3 3 -4 0 -17 -5 -16 -8 -19 -11 -9 -3 8 -10 22 -16 30 -9 13 -9 13 5
3 9 -7 18 -10 22 -7z m35 -71 c-3 -3 -9 2 -12 12 -6 14 -5 15 5 6 7 -7 10 -15
7 -18z m-158 -175 c-8 -5 -22 -9 -30 -9 -10 0 -8 3 5 9 27 12 43 12 25 0z"/>
<path d="M4098 4363 c7 -3 16 -2 19 1 4 3 -2 6 -13 5 -11 0 -14 -3 -6 -6z"/>
<path d="M4158 4343 c6 -2 18 -2 25 0 6 3 1 5 -13 5 -14 0 -19 -2 -12 -5z"/>
<path d="M4215 4330 c11 -5 29 -8 40 -8 16 0 15 2 -5 8 -34 11 -60 11 -35 0z"/>
<path d="M4315 4304 c23 -10 213 -77 248 -87 20 -6 37 -15 37 -19 0 -10 34
-11 44 -1 6 7 -307 114 -329 112 -6 0 -6 -2 0 -5z"/>
<path d="M4646 4181 c-4 -5 27 -19 66 -32 40 -12 91 -30 113 -40 123 -55 213
-83 123 -37 -31 16 -130 60 -173 78 -11 4 -36 15 -57 24 -41 18 -64 20 -72 7z"/>
<path d="M2225 4144 c-77 -6 -91 -12 -104 -40 -23 -50 -8 -64 70 -64 52 0 71
-4 75 -15 10 -24 38 -26 105 -6 35 11 103 23 150 26 83 7 87 6 103 -16 9 -13
16 -31 16 -41 0 -28 15 -30 107 -13 128 22 166 20 215 -12 45 -30 152 -47 277
-45 94 3 109 -20 60 -90 -25 -35 -24 -54 5 -73 42 -28 124 -29 261 -5 106 18
129 20 136 9 6 -10 41 -16 109 -20 56 -3 105 -10 110 -15 5 -5 5 -26 -2 -52
-9 -37 -8 -46 6 -60 18 -18 13 -18 272 -10 128 3 154 -4 154 -43 0 -15 8 -19
40 -19 43 0 50 -11 25 -44 -8 -11 -15 -33 -15 -48 0 -38 35 -51 123 -45 37 2
67 1 67 -4 0 -4 -18 -25 -41 -46 -50 -46 -72 -87 -63 -115 5 -18 12 -20 52
-15 48 5 213 83 251 118 45 42 16 97 -87 165 -31 21 -70 50 -85 64 -16 15 -45
32 -65 39 -20 8 -107 39 -193 71 -85 32 -236 82 -335 110 -98 28 -201 64 -229
80 -49 27 -172 61 -345 95 -47 9 -119 27 -160 40 -92 28 -231 59 -387 84 -65
11 -134 26 -153 34 -26 11 -92 17 -255 20 -121 3 -242 3 -270 1z"/>
<path d="M5006 4031 c13 -13 76 -50 97 -57 9 -4 17 -10 17 -15 0 -5 3 -8 8 -7
4 1 18 -4 32 -12 22 -11 23 -11 13 1 -6 8 -41 29 -77 48 -37 19 -69 38 -72 42
-3 5 -10 9 -17 9 -7 0 -7 -3 -1 -9z"/>
<path d="M5195 3910 c3 -5 20 -19 38 -31 l32 -22 -32 32 c-31 30 -50 41 -38
21z"/>
<path d="M5029 3843 c-27 -15 -60 -46 -82 -78 -40 -58 -51 -85 -15 -39 80 103
117 126 200 125 60 -1 148 -28 179 -57 29 -26 23 -10 -8 23 -16 16 -34 28 -41
25 -7 -2 -33 3 -59 12 -65 22 -120 19 -174 -11z"/>
<path d="M3192 3655 c-7 -14 -12 -32 -12 -40 0 -8 -14 -27 -32 -42 -102 -89
-104 -91 -91 -112 7 -11 10 -27 7 -35 -9 -23 -66 -63 -102 -70 -27 -6 -32 -12
-32 -35 0 -34 -17 -49 -98 -92 -55 -28 -66 -31 -84 -20 -17 11 -24 9 -44 -10
-27 -26 -82 -32 -150 -18 -30 6 -70 2 -160 -16 -65 -14 -138 -25 -161 -25 -45
0 -89 -29 -80 -53 6 -16 83 -10 121 8 22 11 32 12 43 4 18 -16 120 -6 165 15
27 13 41 14 62 6 56 -21 143 -4 188 36 9 9 21 14 25 11 14 -9 119 38 162 72
23 18 44 42 47 54 3 13 24 31 52 44 46 22 92 76 92 108 0 8 12 25 26 38 32 28
43 47 64 118 19 60 12 99 -8 54z"/>
<path d="M1910 3510 c0 -5 7 -10 16 -10 8 0 12 5 9 10 -3 6 -10 10 -16 10 -5
0 -9 -4 -9 -10z"/>
<path d="M1851 3413 c-6 -21 -11 -49 -10 -63 0 -14 7 2 14 35 14 68 12 87 -4
28z"/>
<path d="M1847 3301 c5 -20 33 -19 33 2 0 6 -3 7 -7 4 -3 -4 -12 -2 -19 4 -9
8 -11 5 -7 -10z"/>
<path d="M1840 3228 c0 -15 5 -30 11 -33 18 -12 20 1 4 31 l-15 29 0 -27z"/>
<path d="M4463 3065 c-23 -18 -40 -35 -37 -38 3 -3 -11 -10 -30 -17 -20 -6
-36 -16 -36 -21 0 -5 -5 -9 -12 -9 -6 0 -19 -6 -27 -14 -9 -7 -38 -26 -66 -41
-84 -46 -172 -108 -172 -121 0 -7 6 -10 14 -7 7 3 10 9 7 14 -3 5 4 9 15 9 12
0 21 4 21 8 0 4 14 13 31 19 20 8 28 16 23 24 -5 9 -2 10 9 6 9 -3 32 6 54 21
21 15 55 36 75 47 20 10 35 23 32 27 -3 4 4 8 15 8 12 0 30 9 41 20 11 11 24
20 28 20 5 0 22 12 38 26 18 17 22 24 11 20 -11 -3 -16 -2 -12 5 4 6 14 8 22
5 21 -8 39 4 22 15 -19 12 -18 12 -66 -26z m-114 -98 c-2 -1 -13 -9 -24 -17
-19 -14 -19 -14 -6 3 7 9 18 17 24 17 6 0 8 -1 6 -3z m-159 -101 c0 -2 -7 -7
-16 -10 -8 -3 -12 -2 -9 4 6 10 25 14 25 6z"/>
<path d="M4034 2785 c-59 -40 -328 -170 -389 -187 -98 -26 -170 -56 -191 -79
-9 -10 -22 -16 -28 -13 -6 3 -2 -2 8 -10 21 -17 11 -22 -13 -7 -18 12 -51 -4
-51 -24 0 -7 -4 -17 -10 -20 -6 -3 -7 1 -4 10 5 12 -9 8 -55 -15 -34 -17 -59
-36 -55 -41 3 -6 13 -8 21 -5 8 3 11 1 8 -4 -4 -6 17 3 47 20 29 16 73 40 98
54 116 61 160 88 155 96 -3 4 1 8 8 7 40 -1 58 4 51 15 -5 7 -2 9 8 5 9 -3 19
-3 22 1 4 3 12 7 19 8 26 4 157 67 157 76 0 5 4 7 9 4 10 -6 133 51 142 66 3
5 9 9 13 8 10 -2 66 33 66 42 0 12 -13 10 -36 -7z m-550 -270 c-10 -8 -23 -15
-28 -15 -6 0 -1 7 10 15 10 8 23 15 28 15 6 0 1 -7 -10 -15z"/>
<path d="M2990 2676 c-50 -18 -190 -114 -190 -131 0 -19 27 -44 56 -51 59 -15
198 25 248 71 20 19 26 33 26 68 0 38 -3 46 -22 51 -35 9 -80 6 -118 -8z"/>
<path d="M2643 2592 c-5 -60 -21 -88 -73 -131 -65 -52 -76 -67 -60 -86 22 -26
-21 -76 -86 -98 -27 -10 -39 -20 -39 -33 0 -32 -18 -51 -86 -88 -66 -36 -99
-45 -99 -26 0 17 -18 11 -46 -15 -14 -13 -31 -22 -35 -19 -22 13 -155 6 -192
-10 -26 -12 -77 -18 -172 -21 -118 -4 -136 -3 -142 11 -5 13 -16 14 -63 9 -47
-5 -66 -3 -103 14 -25 12 -62 21 -82 21 -28 0 -38 5 -45 23 -5 12 -9 16 -9 9
-2 -31 24 -53 104 -92 66 -33 91 -40 115 -35 21 5 35 2 46 -9 20 -21 103 -21
151 -1 22 9 67 15 120 15 46 0 93 4 103 10 12 6 36 6 68 0 54 -10 153 8 160
29 2 6 12 11 22 11 65 0 201 84 221 136 5 15 17 24 29 24 26 0 105 81 114 116
4 15 19 39 35 54 29 29 61 113 61 161 0 30 -15 48 -17 21z"/>
<path d="M1378 2423 c6 -2 18 -2 25 0 6 3 1 5 -13 5 -14 0 -19 -2 -12 -5z"/>
<path d="M3210 2384 c0 -10 5 -14 16 -10 8 3 12 2 9 -4 -4 -6 1 -7 11 -3 16 6
15 7 -2 20 -24 17 -34 17 -34 -3z"/>
<path d="M3150 2362 c-19 -11 -56 -27 -82 -37 -26 -10 -45 -21 -42 -26 2 -4
12 -6 22 -3 14 5 14 4 2 -4 -8 -6 -20 -7 -28 -3 -17 10 -178 -72 -175 -88 2
-6 -4 -8 -14 -4 -11 4 -14 3 -9 -6 5 -8 3 -11 -8 -9 -22 4 -177 -104 -171
-119 2 -8 -2 -10 -12 -6 -12 5 -14 3 -8 -7 5 -8 3 -11 -6 -8 -12 5 -75 -25
-89 -42 -15 -18 -224 -78 -280 -81 l-25 -1 25 -8 c19 -6 11 -8 -30 -7 -81 0
-230 -24 -205 -34 15 -6 11 -8 -18 -8 -75 -2 -128 -22 -166 -64 -20 -22 -51
-55 -69 -74 -18 -19 -32 -36 -30 -38 2 -2 36 19 77 47 50 34 96 56 147 70 41
11 74 25 74 30 0 5 4 7 8 4 5 -3 56 8 113 25 57 16 138 35 179 40 41 6 77 14
80 19 3 4 20 11 39 15 56 12 234 122 224 138 -4 6 -1 7 6 2 12 -7 91 42 119
75 8 8 11 9 7 2 -6 -11 -3 -12 14 -2 12 6 18 16 15 22 -5 7 -2 9 8 6 18 -7 71
25 61 37 -5 4 -3 5 4 1 6 -3 32 5 57 18 25 13 46 21 46 18 0 -4 4 -2 8 4 4 5
25 18 47 29 22 10 46 25 53 34 8 9 11 10 7 4 -5 -10 0 -10 17 -3 13 6 31 13
41 16 9 4 17 11 17 16 0 5 6 6 13 2 8 -5 8 -2 -2 9 -17 21 -19 21 -61 -1z m5
-22 c-3 -5 -11 -10 -16 -10 -6 0 -7 5 -4 10 3 6 11 10 16 10 6 0 7 -4 4 -10z
m-146 -64 c-2 -2 -15 -9 -29 -15 -24 -11 -24 -11 -6 3 16 13 49 24 35 12z
m-119 -70 c0 -3 -4 -8 -10 -11 -5 -3 -10 -1 -10 4 0 6 5 11 10 11 6 0 10 -2
10 -4z m-111 -59 c-2 -1 -13 -9 -24 -17 -19 -14 -19 -14 -6 3 7 9 18 17 24 17
6 0 8 -1 6 -3z m-170 -121 c-2 -2 -15 -9 -29 -15 -24 -11 -24 -11 -6 3 16 13
49 24 35 12z m-494 -156 c-3 -5 -11 -10 -16 -10 -6 0 -7 5 -4 10 3 6 11 10 16
10 6 0 7 -4 4 -10z m-110 -40 c-3 -5 -12 -10 -18 -10 -7 0 -6 4 3 10 19 12 23
12 15 0z m-100 -18 c-3 -3 -11 0 -18 7 -9 10 -8 11 6 5 10 -3 15 -9 12 -12z
m62 2 c-3 -3 -12 -4 -19 -1 -8 3 -5 6 6 6 11 1 17 -2 13 -5z"/>
<path d="M1326 2355 c-3 -9 -6 -22 -5 -28 0 -7 5 -1 10 12 5 13 8 26 5 28 -2
2 -6 -3 -10 -12z"/>
<path d="M1320 2209 c0 -5 5 -7 10 -4 6 3 10 8 10 11 0 2 -4 4 -10 4 -5 0 -10
-5 -10 -11z"/>
<path d="M1345 1680 c-94 -27 -105 -32 -98 -43 4 -7 0 -8 -12 -3 -10 4 -49 -5
-94 -23 -42 -16 -115 -37 -163 -46 -102 -19 -206 -26 -186 -13 9 6 6 8 -12 7
-14 -1 -33 2 -44 6 -11 5 -21 3 -26 -5 -6 -9 -10 -8 -19 6 -6 11 -11 15 -11
10 0 -4 -9 2 -21 15 l-20 24 12 -25 c12 -25 35 -44 54 -46 6 0 19 -5 30 -10
11 -5 72 -9 135 -8 89 0 132 5 190 23 41 12 86 24 100 27 14 3 26 9 28 14 2 5
9 7 16 4 7 -3 41 4 77 16 35 11 72 20 82 20 10 0 16 4 13 8 -6 10 3 11 149 18
66 3 138 10 160 14 39 8 39 8 -15 8 -30 0 -66 4 -80 10 -40 15 -179 11 -245
-8z m-200 -90 c-3 -5 -12 -10 -18 -10 -7 0 -6 4 3 10 19 12 23 12 15 0z m-158
-46 c-3 -3 -12 -4 -19 -1 -8 3 -5 6 6 6 11 1 17 -2 13 -5z"/>
</g>
</svg>
